<svg xmlns="http://www.w3.org/2000/svg" viewBox="0 0 64 64" role="img" aria-labelledby="title desc">
  <title id="title">Jilin University emblem</title>
  <desc id="desc">A compact SVG emblem for Jilin University.</desc>
  <circle cx="32" cy="32" r="30" fill="#fff"/>
  <circle cx="32" cy="32" r="28" fill="none" stroke="#0056a6" stroke-width="3"/>
  <circle cx="32" cy="32" r="18" fill="none" stroke="#0056a6" stroke-width="1.6"/>
  <path d="M24 21c4.9 1.6 8.3 4.8 10.2 9.7 1.7-3.1 4.5-5.4 8.4-6.8-2.2 4.8-2.6 9.8-1.2 15-4.8-1.1-8.2-3.5-10.2-7.2-1.9 3.1-5.1 5.4-9.7 6.9 1.8-4.7 2.7-10.5 2.5-17.6z" fill="#0056a6"/>
  <path d="M26.3 22.8c-1.8-3.1-3.1-5-4-5.7 3.9.2 6.8 1.9 8.8 5.1-1.6-.1-3.2.1-4.8.6z" fill="#0056a6"/>
  <text x="32" y="13" text-anchor="middle" font-family="Arial, sans-serif" font-size="5.2" font-weight="700" fill="#0056a6">JLU</text>
  <text x="32" y="52" text-anchor="middle" font-family="Arial, sans-serif" font-size="5.2" font-weight="700" fill="#0056a6">1946</text>
</svg>
