<svg xmlns="http://www.w3.org/2000/svg" viewBox="0 0 64 64" role="img" aria-labelledby="title desc">
  <title id="title">Zhejiang University emblem</title>
  <desc id="desc">A compact SVG emblem for Zhejiang University.</desc>
  <circle cx="32" cy="32" r="30" fill="#fff"/>
  <circle cx="32" cy="32" r="28" fill="none" stroke="#003f88" stroke-width="3"/>
  <circle cx="32" cy="32" r="17" fill="none" stroke="#003f88" stroke-width="1.6"/>
  <path d="M32 18c-3.7 5.5-9.4 8.8-17.2 9.8 5.7 2.7 10.2 2.8 13.4.4-1.4 4-4.7 7.5-9.8 10.5 5.2.6 9.6-1.1 13.6-5.1 3.8 4 8.4 5.7 13.6 5.1-5.1-3-8.4-6.5-9.8-10.5 3.2 2.4 7.7 2.3 13.4-.4-7.8-1-13.5-4.3-17.2-9.8z" fill="#003f88"/>
  <text x="32" y="13" text-anchor="middle" font-family="Arial, sans-serif" font-size="5.2" font-weight="700" fill="#003f88">ZJU</text>
  <text x="32" y="52" text-anchor="middle" font-family="Arial, sans-serif" font-size="5.2" font-weight="700" fill="#003f88">1897</text>
</svg>
